<?xml version="1.0" encoding="UTF-8" standalone="no"?>
<!-- Created with Inkscape (http://www.inkscape.org/) -->
<svg
   xmlns:svg="http://www.w3.org/2000/svg"
   xmlns="http://www.w3.org/2000/svg"
   version="1.0"
   width="225"
   height="225"
   id="svg2440">
  <defs
     id="defs2443" />
  <g
     transform="translate(-5.9210522,-1.8218628)"
     id="g2451">
    <path
       d="M 107.89303,217.33884 C 105.62652,216.43483 87.974446,199.46003 56.225169,167.65335 L 8,119.34098 L 8,114.10475 C 8,111.22482 8.50771,107.91985 9.1282446,106.76037 C 9.7487791,105.60089 31.553842,83.379514 57.583939,57.37953 C 108.70574,6.3168702 108.61002,6.3960721 116.18023,8.8944651 C 118.67787,9.7187612 132.55643,22.977913 166.97291,57.420235 C 193.01871,83.485596 214.91396,105.86664 215.62902,107.1559 C 216.34408,108.44515 216.94508,111.60297 216.96456,114.17327 C 217.00011,118.86046 214.47698,123.30153 209.80492,126.77528 C 208.86156,127.47669 205.93203,130.33426 203.29486,133.12543 C 200.65769,135.9166 196.97063,139.61772 195.1014,141.35014 C 193.23217,143.08256 190.09318,146.21907 188.12586,148.32016 C 185.3201,151.31669 120.67397,215.90154 119.68594,216.6952 C 119.55228,216.80256 117.61881,217.30026 115.38933,217.80119 C 112.45617,218.46023 110.38414,218.33243 107.89303,217.33884 z"
       id="path2455"
       style="fill:#f0e015" />
    <path
       d="M 107.33049,211.99861 C 106.13726,211.51758 84.468809,190.43387 59.178379,165.14593 C 24.384165,130.35515 13.030969,118.41749 12.518435,116.08393 C 10.909252,108.75737 10.725771,108.97719 58.346938,61.180808 C 83.181122,36.255252 104.71515,15.217752 106.20034,14.430808 C 107.68553,13.643864 110.82559,13 113.17826,13 L 117.45584,13 L 164.25283,59.766048 C 214.42159,109.90164 213.49096,108.78172 211.55975,116.69571 C 210.69006,120.25966 121.97649,209.56618 117.28212,211.60348 C 113.67272,213.16991 110.54408,213.29414 107.33049,211.99861 z M 116.87682,209.09729 C 117.63407,208.61765 138.6505,187.85769 163.57999,162.96405 C 194.82149,131.76748 209.09389,116.84901 209.50988,114.95503 C 209.84976,113.40753 209.47864,110.74223 208.6603,108.85359 C 206.7723,104.49631 119.54975,17.501787 115.57628,16.012924 C 113.96823,15.410387 111.47673,15.175657 110.0396,15.491301 C 106.88148,16.184942 16.558592,106.19312 15.200459,110 C 14.709917,111.375 14.676217,113.85 15.125569,115.5 C 15.695629,117.59323 29.787136,132.32822 61.746631,164.25 C 106.841,209.29115 107.61227,209.99976 111.52534,209.98469 C 113.7114,209.97627 116.11957,209.57694 116.87682,209.09729 z M 79.411819,176.6308 C 79.122843,175.87774 79.024466,172.84024 79.193204,169.8808 L 79.5,164.5 L 83.184596,164.19353 C 86.129852,163.94856 87.103618,164.32509 88.037477,166.07003 C 89.594697,168.97972 87.885818,172.73654 84.806502,173.17304 C 83.304472,173.38596 82.388546,174.28477 82.180449,175.75 C 81.825925,178.24625 80.22693,178.75495 79.411819,176.6308 z M 85.052821,168.5 C 84.974419,167.01571 82.737202,167.2884 82.218166,168.8455 C 81.937792,169.68662 82.394936,170.06149 83.437653,169.8455 C 84.355047,169.65548 85.081873,169.05 85.052821,168.5 z M 90,170.91667 C 90,165.69697 90.328877,163.94171 91.25,164.24527 C 91.978721,164.48542 92.626049,166.8138 92.80226,169.8286 C 93.092675,174.79736 93.218023,175 96.00116,175 C 98.637705,175 99.054492,174.50292 100.64286,169.46403 C 102.93632,162.18833 104.68868,162.63866 107.59246,171.25 C 109.46769,176.81111 109.61043,178 108.40291,178 C 107.59679,178 106.67821,177.325 106.36163,176.5 C 106.04504,175.675 104.92004,175 103.86163,175 C 102.80321,175 101.67821,175.675 101.36163,176.5 C 100.94844,177.57675 99.264308,178 95.393011,178 L 90,178 L 90,170.91667 z M 105,171 C 105,170.45 104.55,170 104,170 C 103.45,170 103,170.45 103,171 C 103,171.55 103.45,172 104,172 C 104.55,172 105,171.55 105,171 z M 112,175.1075 C 112,173.42496 111.10168,170.57496 110.00374,168.77417 C 107.6198,164.86415 107.52225,164 109.46482,164 C 110.27047,164 111.46656,165.00326 112.12281,166.22947 L 113.31599,168.45895 L 114.31081,166.22947 C 114.85796,165.00326 115.91186,164 116.65281,164 C 118.38513,164 118.35075,164.4342 116.31232,168.29966 C 115.38409,170.05985 114.59659,172.81215 114.56232,174.4159 C 114.47626,178.44261 112,179.11099 112,175.1075 z M 119,171 C 119,165.44444 119.30952,164 120.5,164 C 121.69048,164 122,165.44444 122,171 C 122,176.55556 121.69048,178 120.5,178 C 119.30952,178 119,176.55556 119,171 z M 124,171 C 124,163.08622 125.51695,161.74918 128.25462,167.25 L 129.87209,170.5 L 129.93605,167.25 C 129.97922,165.0562 130.48748,164 131.5,164 C 132.69048,164 133,165.44444 133,171 C 133,176.72586 132.71116,178 131.41314,178 C 130.54036,178 129.3167,176.65 128.6939,175 C 128.07109,173.35 127.21018,172 126.78076,172 C 126.35134,172 126,173.35 126,175 C 126,176.65 125.55,178 125,178 C 124.42857,178 124,175 124,171 z M 135.89517,176.37369 C 133.62145,173.63402 134.18588,167.07765 136.88351,164.89324 C 139.79003,162.53969 140.21808,162.54213 143.13922,164.92902 C 145.13174,166.55713 145.28552,167.06409 144.125,168.17902 C 143.04273,169.21877 142.65242,169.23388 142.29167,168.25 C 141.56578,166.27032 138.19912,166.79728 137.5,169 C 136.56127,171.95769 137.86307,175 140.06739,175 C 141.13032,175 142,174.55 142,174 C 142,173.45 141.55,173 141,173 C 140.45,173 140,172.325 140,171.5 C 140,170.56667 140.94444,170 142.5,170 C 144.67546,170 145,170.44047 145,173.39301 C 145,175.5645 144.43054,177.00454 143.41821,177.39301 C 140.58071,178.48186 137.27283,178.03367 135.89517,176.37369 z M 74.035184,157.06574 C 72.192458,153.62258 72.765531,147.27764 75.064692,145.66724 C 77.355069,144.063 80.313814,144.46827 82.109742,146.63223 C 83.794098,148.66176 82.282708,149.65765 79.836624,148.13004 C 76.855172,146.2681 75.582738,148.07614 75.881517,153.75 C 76.022301,156.4235 78.488041,156.73122 79.888031,154.25 C 80.668835,152.86617 81.134619,152.75661 82.114093,153.72637 C 83.097938,154.70046 82.976011,155.36903 81.521384,156.97637 C 79.202286,159.53894 75.383202,159.58454 74.035184,157.06574 z M 84,152 C 84,146.59571 84.326084,145 85.430449,145 C 86.217196,145 87.004696,146.0079 87.180449,147.23978 C 87.65465,150.56353 91,150.85566 91,147.57332 C 91,145.95259 91.555269,145 92.5,145 C 93.690476,145 94,146.44444 94,152 C 94,157.55556 93.690476,159 92.5,159 C 91.492047,159 91,157.99185 91,155.92668 C 91,153.53994 90.609046,152.92749 89.25,153.18523 C 88.194523,153.38539 87.374421,154.6051 87.183578,156.25855 C 87.002761,157.82513 86.252782,159 85.433578,159 C 84.325339,159 84,157.41141 84,152 z M 96,152 C 96,148 96.428571,145 97,145 C 97.571429,145 98,148 98,152 C 98,156 97.571429,159 97,159 C 96.428571,159 96,156 96,152 z M 100,152 C 100,146.44444 100.30952,145 101.5,145 C 102.65152,145 103,146.27778 103,150.5 C 103,155.7 103.13636,156 105.5,156 C 107.05556,156 108,156.56667 108,157.5 C 108,158.58333 106.88889,159 104,159 L 100,159 L 100,152 z M 109,152 L 109,145 L 112.96482,145 C 117.51003,145 119,146.79711 119,152.27927 C 119,156.4879 116.44753,159 112.17126,159 L 109,159 L 109,152 z M 115.5,152 C 115.5,149.48781 115.016,148.43418 113.75,148.19037 C 112.3105,147.91315 112,148.58909 112,152 C 112,155.41091 112.3105,156.08685 113.75,155.80963 C 115.016,155.56582 115.5,154.51219 115.5,152 z M 120.66667,158.33333 C 120.3,157.96667 120,154.81667 120,151.33333 L 120,145 L 124.48095,145 C 128.43281,145 129.03637,145.29672 129.59262,147.51299 C 129.93951,148.89513 129.70978,150.64476 129.08211,151.40106 C 128.22596,152.43266 128.2346,153.42078 129.11667,155.35672 C 130.88646,159.24099 132,157.56782 132,151.02432 C 132,144.74972 132.51579,144.12855 137.15998,144.81017 C 141.06299,145.38301 140.88332,148 136.94098,148 C 135.15628,148 134.13942,148.41658 134.5,149 C 134.83992,149.55 136.21648,150 137.55902,150 C 140.98032,150 140.70994,152.78547 137.25,153.18358 C 133.63384,153.59966 133.82525,155.36348 137.5567,156.00982 C 142.64646,156.89144 140.76115,158.48755 134.2641,158.79735 C 128.25549,159.08386 127.96073,158.98376 126.17717,156.05094 C 124.17102,152.75209 123,152.97903 123,156.66667 C 123,158.94887 121.99795,159.66462 120.66667,158.33333 z M 127,149 C 127,148.45 126.1,148 125,148 C 123.9,148 123,148.45 123,149 C 123,149.55 123.9,150 125,150 C 126.1,150 127,149.55 127,149 z M 142,152 C 142,146.40061 142.30442,145 143.52144,145 C 144.35823,145 145.55546,146.125 146.18195,147.5 C 147.6384,150.69655 148.78156,150.6847 149.18358,147.46891 C 149.84384,142.1874 151.5,145.23843 151.5,151.7363 C 151.5,159.63457 149.51894,161.32751 146.76204,155.78518 L 145.12791,152.5 L 145.06395,155.75 C 145.02078,157.9438 144.51252,159 143.5,159 C 142.30952,159 142,157.55556 142,152 z M 102.23346,138.71575 C 100.863,138.08925 100.14376,137.05107 100.41423,136.0898 C 100.66025,135.21541 101.6271,130.94854 102.56278,126.60786 C 104.07009,119.61531 104.88143,117.98791 109.68068,112.33059 L 115.09735,105.94546 L 112.87661,102.82672 L 110.65587,99.707979 L 107.73094,103.35399 C 106.12223,105.3593 104.418,107 103.94376,107 C 103.46953,107 101.03817,105.76578 98.540758,104.25728 C 95.304186,102.30232 94,100.86623 94,99.257282 C 94,96.583806 94.048878,96.575756 98.638353,98.493361 C 102.26032,100.00672 104,99.776996 104,97.785374 C 104,95.245301 109.25649,90.067463 113.46794,88.459094 C 120.65609,85.713915 127.83592,87.561568 136.25,94.321812 C 139.71177,97.103156 140.90473,99.761932 139.37658,101.29009 C 139.0337,101.63297 137.27992,100.78981 135.47929,99.416405 C 131.67348,96.513575 126.2955,94.712848 125.46159,96.062146 C 125.15063,96.565287 125.81247,99.048294 126.93234,101.57994 C 128.06741,104.14596 129.26033,109.68272 129.62801,114.09147 L 130.28755,122 L 136.53679,122 C 141.44774,122 142.92303,122.35704 143.42579,123.66722 C 143.77767,124.58419 143.71331,125.64876 143.28278,126.03293 C 141.96065,127.2127 126.82973,129.23439 126.01329,128.34037 C 125.59119,127.87817 124.48112,125.14279 123.54646,122.26176 C 122.6118,119.38073 121.51921,116.82089 121.11847,116.57322 C 120.71773,116.32555 118.05536,118.00776 115.20209,120.31146 C 110.55052,124.06708 109.79063,125.25328 107.85021,131.78798 C 106.65995,135.79637 105.41923,139.22805 105.09305,139.41393 C 104.76687,139.59981 103.48006,139.28563 102.23346,138.71575 z M 82.654988,128.17126 C 77.229277,122.17592 85.128213,113.16661 91.450303,118.13957 C 94.560361,120.58594 94.931995,125.84658 92.171259,128.34501 C 89.743972,130.54168 84.717124,130.44989 82.654988,128.17126 z M 107.31537,86.9837 C 104.81531,85.987067 103,83.076953 103,80.065741 C 103,74.560318 112.27299,71.696262 115.4433,76.222506 C 119.52454,82.049298 113.83466,89.58257 107.31537,86.9837 z M 83,66 C 81.9,64.9 81,63.325 81,62.5 C 81,60.483508 83.980626,60.591245 85.49515,62.66248 C 86.215229,63.647247 87.381212,64.067693 88.355392,63.693865 C 90.947567,62.699154 90.301082,61.314587 86.318908,59.332358 C 81.221737,56.79511 80.104606,54.687346 82.034374,51.248446 C 84.457613,46.930167 91.276616,46.949847 92.938812,51.279917 C 94.117617,54.35074 92.500588,55.763001 90.194888,53.676371 C 88.085857,51.767724 86.406115,51.533874 85.487048,53.020956 C 85.140006,53.582482 86.447219,54.70674 88.391965,55.519307 C 91.949478,57.005731 94,59.534113 94,62.434259 C 94,64.829805 90.29766,68 87.5,68 C 86.125,68 84.1,67.1 83,66 z M 96,58.079479 C 96,49.915859 96.277117,48 97.457936,48 C 98.584646,48 98.982225,49.760708 99.207936,55.75 L 99.5,63.5 L 103.311,63.814002 C 106.25279,64.056387 107.04813,64.511572 106.79812,65.809747 C 106.55434,67.075631 105.17922,67.574016 101.23712,67.825225 L 96,68.158959 L 96,58.079479 z M 112.22896,67.330706 C 110.29942,66.554359 108,61.480967 108,58 C 108,53.642439 110.58896,49.141268 113.51819,48.406079 C 119.70412,46.853508 123.12563,50.35622 123.24671,58.365507 C 123.35565,65.57161 118.22767,69.74427 112.22896,67.330706 z M 119.02473,61.953794 C 121.69182,56.970296 118.19947,50.13307 114.25,52.605964 C 110.58032,54.903673 111.97742,64 116,64 C 117.0613,64 118.42243,63.079207 119.02473,61.953794 z M 127.61119,66.30687 C 126.83896,63.813821 124,50.098887 124,48.8613 C 124,48.306928 124.76368,48.000422 125.69706,48.180175 C 126.82097,48.39662 127.77909,50.194468 128.534,53.503499 C 129.75266,58.845269 129.7874,58.809756 131.53535,50.435081 C 131.94037,48.494568 132.59778,47.946826 134.23586,48.185081 C 135.9346,48.432159 136.64584,49.577111 137.53746,53.5 C 138.75032,58.83626 138.79829,58.787991 140.51905,50.5 C 141.10487,47.678423 144.00009,47.054592 143.99983,49.75 C 143.99973,50.7125 143.32473,55.027086 142.49983,59.337968 C 141.67492,63.648851 141,67.361351 141,67.587968 C 141,67.814586 140.12115,68 139.047,68 C 137.09783,68 135.01888,63.155988 135.00558,58.583333 C 134.99639,55.425685 133.56969,57.830563 132.49566,62.814107 C 131.44021,67.711471 128.6617,69.69831 127.61119,66.30687 z"
       id="path2453"
       style="fill:#2b2107" />
  </g>
</svg>
